<?xml version="1.0" standalone="no"?>
<!DOCTYPE svg PUBLIC "-//W3C//DTD SVG 20010904//EN"
 "http://www.w3.org/TR/2001/REC-SVG-20010904/DTD/svg10.dtd">
<svg version="1.0" xmlns="http://www.w3.org/2000/svg"
 width="960.000000pt" height="540.000000pt" viewBox="0 0 960.000000 540.000000"
 preserveAspectRatio="xMidYMid meet">

<g transform="translate(0.000000,540.000000) scale(0.100000,-0.100000)"
fill="#000000" stroke="none">
<path d="M2681 3479 c-251 -32 -449 -169 -559 -384 -109 -215 -123 -605 -32
-877 92 -275 285 -426 565 -445 116 -7 212 9 292 49 l63 31 61 -27 c33 -15 88
-32 122 -37 82 -12 277 -1 277 16 0 7 14 18 30 25 29 12 30 15 30 76 0 62 1
64 25 64 14 0 25 -6 25 -12 0 -9 2 -10 8 -2 10 16 49 27 56 15 9 -14 -4 -40
-18 -35 -19 7 -49 -20 -44 -42 4 -16 15 -8 69 46 35 36 78 92 96 125 59 112
63 147 63 524 l0 341 -90 0 -90 0 0 -320 c0 -329 -6 -392 -42 -463 -21 -41
-95 -127 -109 -127 -5 0 -9 155 -9 345 l0 345 -270 0 -270 0 0 110 0 110 -90
0 -90 0 0 -440 0 -440 -24 0 c-13 0 -53 9 -89 20 -125 39 -218 155 -252 315
-35 170 -28 394 17 538 53 171 181 269 368 284 157 12 298 -37 371 -129 21
-27 41 -57 44 -68 4 -11 11 -20 16 -20 24 0 249 144 249 159 0 26 -78 137
-123 176 -149 128 -396 187 -646 154z m466 -1116 c-3 -49 -13 -110 -23 -137
-18 -52 -96 -140 -117 -133 -7 2 -25 29 -41 61 -27 52 -30 69 -34 177 l-4 119
112 0 113 0 -6 -87z m13 -363 c0 -22 -7 -25 -29 -11 -16 10 -6 31 15 31 8 0
14 -9 14 -20z"/>
<path d="M6120 1701 c0 -6 -13 -17 -29 -25 -33 -17 -44 -48 -27 -72 16 -21 51
-14 51 11 0 12 -9 21 -24 25 -22 5 -21 6 13 22 36 18 45 32 26 43 -5 3 -10 2
-10 -4z m-17 -86 c1 -5 -6 -11 -15 -13 -11 -2 -18 3 -18 13 0 17 30 18 33 0z"/>
<path d="M4227 1664 c-14 -14 -7 -43 15 -58 45 -32 128 -9 128 34 0 29 -17 33
-24 5 -9 -36 -49 -49 -87 -29 -17 8 -28 21 -26 27 6 19 32 14 31 -5 -1 -10 3
-18 8 -18 5 0 8 10 6 23 -3 22 -36 36 -51 21z"/>
<path d="M4827 1664 c-28 -28 16 -74 70 -74 35 0 73 29 73 54 0 26 -18 26 -24
1 -9 -36 -49 -49 -87 -29 -17 8 -28 21 -26 27 6 19 32 14 31 -5 -1 -10 3 -18
8 -18 5 0 8 10 6 23 -3 22 -36 36 -51 21z"/>
<path d="M5241 1656 c-24 -29 13 -66 67 -66 32 0 82 34 82 55 0 26 -20 26 -30
1 -11 -29 -45 -50 -67 -42 -12 5 -13 9 -3 21 7 8 10 22 6 30 -7 19 -40 20 -55
1z m44 -16 c0 -8 -8 -16 -17 -18 -13 -2 -18 3 -18 18 0 15 5 20 18 18 9 -2 17
-10 17 -18z"/>
<path d="M3370 1640 c-30 -30 -25 -37 33 -36 28 1 66 -2 84 -6 28 -6 31 -5 26
10 -13 37 -36 52 -80 52 -30 0 -49 -6 -63 -20z m101 0 c33 -18 21 -25 -36 -22
-30 2 -55 8 -55 12 0 20 60 26 91 10z"/>
<path d="M2757 1554 c-14 -15 -6 -46 13 -51 28 -7 28 -68 -1 -91 -13 -11 -18
-23 -14 -35 9 -21 51 -22 63 -1 8 14 12 14 44 -2 61 -28 68 -18 68 92 0 72 -3
95 -12 92 -9 -3 -14 -33 -16 -91 -1 -48 -5 -87 -8 -87 -3 0 -22 9 -44 20 -39
20 -39 20 -42 87 -3 60 -6 68 -23 71 -12 2 -24 0 -28 -4z m38 -24 c0 -22 -29
-18 -33 3 -3 14 1 18 15 15 10 -2 18 -10 18 -18z m10 -140 c0 -8 -8 -16 -17
-18 -13 -2 -18 3 -18 18 0 15 5 20 18 18 9 -2 17 -10 17 -18z"/>
<path d="M2977 1554 c-14 -15 -6 -46 13 -51 18 -5 20 -14 20 -74 0 -89 15 -90
58 -4 18 37 38 65 47 65 12 0 15 -14 15 -65 0 -62 11 -84 24 -49 9 24 7 97 -4
114 -5 9 -5 19 2 27 18 22 1 45 -29 41 -23 -2 -28 -8 -27 -28 1 -14 -2 -27 -6
-30 -3 -3 -17 -26 -29 -52 -13 -27 -26 -50 -29 -52 -4 -2 -7 33 -7 77 0 75 -2
82 -20 85 -12 2 -24 0 -28 -4z m38 -24 c0 -22 -29 -18 -33 3 -3 14 1 18 15 15
10 -2 18 -10 18 -18z m125 6 c0 -21 -21 -31 -30 -15 -5 7 -6 17 -4 21 9 14 34
9 34 -6z"/>
<path d="M3210 1540 c-21 -21 -25 -36 -11 -44 4 -3 13 6 19 19 9 19 19 25 41
25 40 0 51 -23 51 -109 0 -41 4 -71 10 -71 6 0 10 34 10 83 0 69 -3 87 -18
100 -25 23 -78 21 -102 -3z"/>
<path d="M3392 1544 c-12 -8 -22 -24 -22 -35 0 -25 20 -25 27 1 6 21 38 34 70
28 14 -2 19 -15 23 -64 3 -42 2 -60 -6 -57 -16 6 -37 -24 -30 -43 4 -10 15
-14 33 -12 27 3 28 5 31 77 4 93 -11 121 -66 121 -21 0 -48 -7 -60 -16z m106
-157 c2 -10 -3 -17 -12 -17 -18 0 -29 16 -21 31 9 14 29 6 33 -14z"/>
<path d="M3567 1554 c-14 -15 -6 -46 13 -51 18 -5 20 -14 20 -74 0 -97 19 -91
61 21 47 126 69 119 66 -21 -1 -42 2 -68 8 -66 14 5 18 137 6 170 -7 19 -18
27 -34 27 -21 0 -28 -10 -53 -77 l-29 -78 -5 75 c-4 66 -7 75 -25 78 -12 2
-24 0 -28 -4z m41 -21 c-2 -10 -10 -18 -18 -18 -8 0 -16 8 -18 18 -2 12 3 17
18 17 15 0 20 -5 18 -17z"/>
<path d="M3802 1548 c-16 -16 -15 -50 2 -74 13 -16 12 -21 -1 -36 -10 -11 -13
-26 -9 -42 13 -53 130 -53 154 0 17 35 16 167 0 162 -9 -3 -14 -30 -16 -78 -2
-41 -8 -80 -14 -88 -7 -8 -27 -12 -52 -10 -38 3 -41 5 -41 33 0 25 4 30 28 33
33 4 36 22 4 22 -23 0 -47 17 -47 33 0 4 8 6 18 3 24 -8 45 8 40 30 -4 23 -47
31 -66 12z m53 -18 c0 -22 -29 -18 -33 3 -3 14 1 18 15 15 10 -2 18 -10 18
-18z"/>
<path d="M4018 1549 c-10 -5 -18 -21 -18 -34 0 -31 12 -32 25 -2 11 25 49 34
71 17 10 -9 14 -35 14 -91 0 -46 4 -79 10 -79 6 0 10 37 10 90 0 78 -2 91 -19
100 -25 13 -71 12 -93 -1z"/>
<path d="M4202 1544 c-12 -8 -22 -22 -22 -30 0 -19 6 -18 30 6 27 27 85 27
100 1 5 -11 10 -30 10 -42 0 -18 -3 -20 -12 -11 -14 14 -72 16 -97 2 -21 -11
-33 -56 -24 -89 4 -17 12 -21 32 -19 20 2 26 8 26 28 0 19 -5 25 -22 24 -28
-1 -29 10 -3 36 41 41 100 9 100 -55 0 -19 5 -35 10 -35 6 0 10 33 10 80 0 67
-3 83 -20 100 -24 24 -86 27 -118 4z m33 -155 c0 -7 -8 -15 -17 -17 -18 -3
-25 18 -11 32 10 10 28 1 28 -15z"/>
<path d="M4390 1536 c-11 -30 2 -76 22 -76 6 0 4 -6 -6 -13 -12 -9 -17 -23
-14 -42 2 -24 10 -32 38 -41 40 -13 89 -3 108 23 15 20 17 173 2 173 -6 0 -10
-31 -10 -72 -1 -45 -6 -80 -14 -90 -18 -24 -94 -25 -103 -2 -8 22 9 48 36 52
28 4 27 22 -2 22 -22 0 -47 16 -47 31 0 4 12 7 28 6 23 -2 27 2 27 23 0 20 -6
26 -27 28 -22 3 -30 -2 -38 -22z m60 0 c0 -8 -5 -18 -11 -22 -14 -8 -33 11
-25 25 10 16 36 13 36 -3z"/>
<path d="M4612 1544 c-12 -8 -22 -24 -22 -35 0 -27 15 -24 28 6 9 18 19 25 41
25 40 0 48 -14 54 -97 4 -58 3 -73 -8 -73 -24 0 -29 22 -9 37 19 14 19 15 -1
11 -14 -2 -20 -11 -20 -28 0 -20 6 -26 27 -28 34 -4 42 22 36 110 -3 44 -10
64 -23 74 -25 19 -75 18 -103 -2z"/>
<path d="M4802 1544 c-12 -8 -22 -22 -22 -30 0 -20 13 -17 28 6 9 14 23 20 50
20 46 0 62 -14 62 -54 0 -23 -3 -27 -12 -18 -17 17 -84 15 -102 -3 -21 -21
-29 -52 -22 -81 5 -20 12 -25 34 -22 21 2 27 8 27 28 0 19 -5 25 -21 24 -25 0
-22 22 4 44 39 31 92 -5 92 -63 0 -19 5 -35 10 -35 6 0 10 34 10 83 0 69 -3
87 -18 100 -24 21 -90 22 -120 1z m33 -155 c0 -7 -8 -15 -17 -17 -18 -3 -25
18 -11 32 10 10 28 1 28 -15z"/>
<path d="M4990 1536 c-11 -30 2 -76 22 -76 6 0 4 -6 -6 -13 -12 -9 -17 -23
-14 -42 2 -24 10 -32 38 -41 40 -13 89 -3 108 23 15 20 17 173 2 173 -6 0 -10
-28 -10 -64 0 -36 -4 -76 -10 -91 -9 -24 -14 -26 -57 -23 -43 3 -48 5 -48 27
0 23 9 31 50 47 17 7 16 8 -10 12 -35 4 -55 19 -55 39 0 13 3 13 15 3 21 -18
47 -5 43 22 -5 35 -55 38 -68 4z m60 0 c0 -8 -5 -18 -11 -22 -14 -8 -33 11
-25 25 10 16 36 13 36 -3z"/>
<path d="M5209 1541 c-19 -16 -22 -22 -11 -32 10 -11 15 -9 28 9 10 15 25 22
48 22 37 0 51 -12 58 -52 4 -24 3 -26 -13 -18 -10 6 -33 10 -52 10 -46 0 -69
-27 -65 -77 3 -33 7 -38 29 -41 18 -2 29 3 33 14 8 22 -13 47 -35 41 -15 -4
-16 -2 -7 19 15 32 51 41 83 20 20 -13 25 -25 25 -57 0 -28 4 -39 13 -36 8 3
12 29 12 86 0 70 -3 85 -19 97 -29 21 -99 18 -127 -5z m39 -154 c2 -10 -3 -17
-12 -17 -18 0 -29 16 -21 31 9 14 29 6 33 -14z"/>
<path d="M5424 1534 c-20 -19 -24 -31 -19 -47 4 -12 10 -42 12 -67 8 -70 23
-73 23 -4 0 33 -5 65 -11 71 -16 16 25 53 59 53 44 0 52 -16 52 -103 0 -58 3
-78 13 -75 8 3 13 30 15 74 2 59 -1 75 -18 97 -30 37 -90 38 -126 1z"/>
<path d="M5617 1554 c-14 -15 -6 -46 13 -51 16 -4 20 -14 20 -50 0 -56 12 -78
50 -91 36 -13 86 1 100 28 12 23 13 170 1 170 -12 0 -21 -26 -21 -64 0 -37
-15 -56 -44 -56 -19 0 -19 0 -1 14 22 16 14 46 -14 46 -21 0 -33 -22 -25 -45
8 -21 48 -29 72 -16 19 10 20 9 11 -21 -5 -18 -9 -34 -9 -35 0 -2 -18 -3 -39
-3 -47 0 -53 10 -60 105 -5 61 -9 70 -26 73 -12 2 -24 0 -28 -4z m41 -21 c-2
-10 -10 -18 -18 -18 -8 0 -16 8 -18 18 -2 12 3 17 18 17 15 0 20 -5 18 -17z
m77 -54 c10 -15 -1 -23 -20 -15 -9 3 -13 10 -10 16 8 13 22 13 30 -1z"/>
<path d="M5874 1535 c-18 -18 -23 -31 -18 -43 4 -9 10 -41 12 -70 4 -60 26
-81 58 -57 15 11 17 18 8 31 -6 10 -17 20 -25 23 -9 3 -8 -1 4 -13 19 -19 14
-36 -10 -36 -12 0 -14 7 -10 37 4 21 1 53 -6 71 -10 30 -9 35 8 48 28 20 72
18 85 -5 5 -11 10 -51 10 -89 0 -38 3 -71 6 -75 4 -3 17 1 31 10 18 12 27 13
36 4 17 -17 54 -13 61 6 4 9 3 20 -2 25 -5 5 -7 43 -4 85 4 62 2 75 -9 71 -9
-3 -16 -26 -19 -66 -5 -56 -8 -64 -40 -87 l-35 -26 -5 76 c-4 61 -9 80 -24 91
-32 23 -83 18 -112 -11z m236 -145 c0 -11 -6 -20 -14 -20 -18 0 -29 16 -21 30
11 18 35 11 35 -10z"/>
</g>
</svg>
